# xmcd
#
# Track frame offsets:
# 150
# 30137
# 57443
# 80647
# 109215
# 138414
# 160559
# 195432
# 216893
#
# Disc length: 3201 seconds
#
# Revision: 0
# Processed by: cddbd v1.4PL0 Copyright (c) Steve Scherf et al.
# Submitted via: MacMP3 Pro 5.0 (http://mp3.act2.co.jp/)
#
DISCID=700c7f09
DTITLE=Christian Elsasser Trio - Future Days
DYEAR=1900
DGENRE=
TTITLE0=Pas(s)ing Moments
TTITLE1=Conclusions of a Dream
TTITLE2=Gossip Song
TTITLE3=Future Days
TTITLE4=Significant Decisions
TTITLE5=Afterthoughts of a Bee Sting
TTITLE6=Something Special
TTITLE7=The Storyteller
TTITLE8=My Foolish Heart
EXTD=
EXTT0=
EXTT1=
EXTT2=
EXTT3=
EXTT4=
EXTT5=
EXTT6=
EXTT7=
EXTT8=
PLAYORDER=
